<svg width="220" height="77" viewBox="0 0 220 77" fill="none" xmlns="http://www.w3.org/2000/svg">
<g clip-path="url(#clip0)">
<path d="M215.875 0.00016298H4.125C3.03098 0.00016298 1.98177 0.43476 1.20818 1.20835C0.434597 1.98194 0 3.03115 0 4.12516L0 76.0652C0 76.3131 0.0985087 76.551 0.273855 76.7263C0.449202 76.9016 0.687023 77.0002 0.935 77.0002H219.102C219.35 77.0002 219.587 76.9016 219.763 76.7263C219.938 76.551 220.037 76.3131 220.037 76.0652V4.12516C220.037 3.58036 219.929 3.04095 219.719 2.53808C219.51 2.03521 219.202 1.57883 218.816 1.19531C218.429 0.811782 217.97 0.508705 217.465 0.303573C216.96 0.0984417 216.42 -0.0046797 215.875 0.00016298ZM4.125 1.8335H215.875C216.177 1.82854 216.478 1.88443 216.758 1.99784C217.038 2.11125 217.293 2.27987 217.507 2.49367C217.72 2.70746 217.889 2.96207 218.002 3.24235C218.116 3.52263 218.172 3.82285 218.167 4.12516V54.0285H66.7883C63.9781 59.1271 59.8514 63.3783 54.8388 66.3391C49.8261 69.2999 44.1109 70.8616 38.2892 70.8616C32.4674 70.8616 26.7522 69.2999 21.7396 66.3391C16.7269 63.3783 12.6003 59.1271 9.79 54.0285H1.83333V4.12516C1.82838 3.82285 1.88427 3.52263 1.99768 3.24235C2.11109 2.96207 2.27971 2.70746 2.4935 2.49367C2.7073 2.27987 2.96191 2.11125 3.24219 1.99784C3.52246 1.88443 3.82269 1.82854 4.125 1.8335Z" fill="white"/>
<path d="M58.6667 15.4917C61.3703 18.1354 63.5037 21.305 64.9352 24.805C66.3667 28.305 67.0661 32.0611 66.99 35.8417C67.0849 39.5845 66.4079 43.3067 65.0011 46.7763C63.5944 50.2459 61.488 53.3886 58.8133 56.0084C56.1495 58.7397 52.9601 60.9032 49.4374 62.3684C45.9147 63.8336 42.1317 64.57 38.3167 64.5334C34.5559 64.5786 30.8259 63.8518 27.3572 62.3981C23.8885 60.9444 20.7548 58.7946 18.15 56.0817C15.4432 53.4722 13.2974 50.3377 11.8442 46.8701C10.3909 43.4025 9.66075 39.6747 9.69833 35.9151C9.64674 32.1187 10.3659 28.3513 11.8123 24.8408C13.2587 21.3304 15.4023 18.1499 18.1133 15.4917C20.7205 12.7906 23.8575 10.657 27.3278 9.22477C30.798 7.79252 34.5266 7.09244 38.28 7.1684C42.0673 7.08294 45.8318 7.77779 49.339 9.20971C52.8463 10.6416 56.0214 12.78 58.6667 15.4917ZM22 19.1584C19.7576 21.3096 17.9769 23.8951 16.7666 26.7571C15.5562 29.6191 14.9415 32.6977 14.96 35.8051C14.9327 38.8854 15.5367 41.9386 16.7349 44.7764C17.9331 47.6142 19.7 50.1765 21.9267 52.3051C24.0579 54.5282 26.6207 56.2928 29.4579 57.4908C32.2951 58.6887 35.347 59.2947 38.4267 59.2717C41.5184 59.2808 44.5802 58.6651 47.4281 57.4616C50.2761 56.2582 52.8516 54.4918 55 52.2684C57.2191 50.1453 58.9666 47.579 60.129 44.7363C61.2913 41.8936 61.8425 38.8381 61.7467 35.7684C61.8064 32.6898 61.239 29.6313 60.0792 26.7789C58.9193 23.9266 57.1912 21.34 55 19.1767C52.8456 16.9623 50.2602 15.2131 47.4034 14.0369C44.5466 12.8607 41.479 12.2827 38.39 12.3384C35.3073 12.2732 32.2448 12.8509 29.3977 14.0345C26.5506 15.2182 23.9812 16.982 21.8533 19.2134L22 19.1584ZM34.1733 33.0001C33.9463 32.3255 33.516 31.7378 32.9415 31.3176C32.3671 30.8975 31.6766 30.6654 30.965 30.6534C28.435 30.6534 27.17 32.3584 27.17 35.7684C27.17 39.1601 28.435 40.8651 30.965 40.8651C31.7337 40.8957 32.4925 40.6838 33.1341 40.2594C33.7757 39.8349 34.2675 39.2195 34.54 38.5001L38.0417 40.3334C37.3454 41.7166 36.2674 42.8713 34.9352 43.6608C33.6031 44.4504 32.0726 44.8417 30.525 44.7884C29.3835 44.8409 28.2435 44.6562 27.1769 44.246C26.1104 43.8358 25.1405 43.209 24.3283 42.4051C23.5203 41.5229 22.8978 40.4873 22.4979 39.3598C22.0979 38.2323 21.9286 37.0359 22 35.8417C21.9374 34.6507 22.118 33.4593 22.5309 32.3404C22.9438 31.2214 23.5804 30.1983 24.4017 29.3334C25.1788 28.5431 26.1108 27.9219 27.1393 27.5086C28.1677 27.0953 29.2704 26.8989 30.3783 26.9317C31.9179 26.8256 33.4551 27.1694 34.8027 27.9213C36.1503 28.6732 37.2502 29.8008 37.9683 31.1667L34.1733 33.0001ZM50.6733 33.0001C50.4541 32.3313 50.0334 31.7468 49.4688 31.3267C48.9042 30.9065 48.2235 30.6714 47.52 30.6534C44.9533 30.6534 43.6517 32.3584 43.6517 35.7684C43.6517 39.1784 44.9533 40.8651 47.52 40.8651C48.2798 40.897 49.0299 40.6846 49.6601 40.2589C50.2903 39.8333 50.7675 39.2169 51.0217 38.5001L54.6883 40.3334C53.9952 41.7151 52.9204 42.8691 51.5914 43.6587C50.2625 44.4483 48.735 44.8404 47.19 44.7884C46.051 44.8428 44.9132 44.659 43.8494 44.2486C42.7855 43.8382 41.819 43.2103 41.0117 42.4051C40.2047 41.5296 39.5826 40.5004 39.1826 39.3789C38.7825 38.2575 38.6127 37.0669 38.6833 35.8784C38.6018 34.6906 38.7611 33.4985 39.1518 32.3738C39.5424 31.2491 40.1564 30.2149 40.9567 29.3334C41.7346 28.539 42.6693 27.9152 43.7015 27.5017C44.7336 27.0883 45.8405 26.8941 46.9517 26.9317C48.4886 26.8269 50.0228 27.1714 51.3672 27.9234C52.7117 28.6754 53.8083 29.8023 54.5233 31.1667L50.6733 33.0001Z" fill="white"/>
<path d="M100.595 22.2199C100.597 22.0386 100.564 21.8587 100.495 21.6908C100.427 21.5228 100.326 21.3703 100.198 21.2421C100.07 21.1139 99.917 21.0127 99.7491 20.9445C99.5812 20.8763 99.4013 20.8424 99.22 20.8449H90.53C90.1653 20.8449 89.8156 20.9897 89.5577 21.2476C89.2999 21.5054 89.155 21.8552 89.155 22.2199V30.9099H91.6667V41.2132H98.2667V30.9099H100.687V22.2199H100.595Z" fill="white"/>
<path d="M94.875 19.69C96.5153 19.69 97.845 18.3603 97.845 16.72C97.845 15.0797 96.5153 13.75 94.875 13.75C93.2347 13.75 91.905 15.0797 91.905 16.72C91.905 18.3603 93.2347 19.69 94.875 19.69Z" fill="white"/>
<path fill-rule="evenodd" clip-rule="evenodd" d="M94.8567 6.21502C92.0738 6.16002 89.3094 6.67856 86.7357 7.73834C84.1619 8.79811 81.8339 10.3764 79.8967 12.375C77.8823 14.3415 76.2868 16.6952 75.2061 19.2946C74.1254 21.8939 73.5819 24.6851 73.6083 27.5C73.5772 30.2939 74.1192 33.0645 75.2007 35.6407C76.2823 38.2169 77.8805 40.544 79.8967 42.4784C81.8298 44.4898 84.1546 46.0839 86.7275 47.1622C89.3005 48.2406 92.0671 48.7804 94.8567 48.7483C97.6775 48.7628 100.472 48.2085 103.074 47.1186C105.676 46.0287 108.032 44.4256 110 42.405C111.994 40.4765 113.568 38.1575 114.625 35.5929C115.682 33.0283 116.198 30.2732 116.142 27.5C116.203 24.6934 115.69 21.9038 114.634 19.3028C113.578 16.7018 112.001 14.3442 110 12.375C108.032 10.3669 105.672 8.78403 103.067 7.72447C100.462 6.66491 97.668 6.15116 94.8567 6.21502ZM94.8567 10.0467C97.1442 10.0086 99.415 10.4414 101.528 11.3182C103.641 12.195 105.551 13.497 107.14 15.1434C108.809 16.734 110.13 18.6533 111.02 20.78C111.909 22.9068 112.349 25.1949 112.31 27.5C112.371 29.766 111.958 32.0198 111.096 34.1163C110.234 36.2129 108.943 38.1058 107.305 39.6733C105.698 41.3332 103.771 42.6503 101.641 43.5452C99.5112 44.44 97.222 44.8941 94.9117 44.88C92.6166 44.9057 90.3406 44.4601 88.2247 43.5708C86.1087 42.6816 84.1977 41.3675 82.61 39.71C80.9577 38.1376 79.6462 36.2424 78.7569 34.142C77.8675 32.0416 77.4193 29.7808 77.44 27.5C77.4283 25.1965 77.8855 22.9147 78.7837 20.7936C79.682 18.6724 81.0026 16.7562 82.665 15.1617C84.241 13.5077 86.1433 12.199 88.2514 11.3186C90.3595 10.4381 92.6275 10.005 94.9117 10.0467H94.8567Z" fill="white"/>
<path d="M88.7333 60.0418C89.2624 60.0399 89.7904 60.089 90.31 60.1885C90.7461 60.2775 91.1623 60.4453 91.5383 60.6835C91.8814 60.9226 92.1588 61.2441 92.345 61.6185C92.5414 62.0689 92.6354 62.5573 92.62 63.0485C92.6368 63.5867 92.4898 64.1173 92.1983 64.5701C91.8931 65.0162 91.467 65.366 90.97 65.5785C91.6485 65.747 92.2458 66.1495 92.6567 66.7151C93.0375 67.29 93.2297 67.9693 93.2067 68.6585C93.2157 69.212 93.0899 69.7594 92.84 70.2535C92.6141 70.6856 92.287 71.0567 91.8867 71.3351C91.4652 71.6321 90.993 71.8495 90.4933 71.9768C89.978 72.108 89.4485 72.1757 88.9167 72.1785H83.0133V60.0418H88.7333ZM88.385 64.9551C88.8088 64.966 89.2254 64.8442 89.5767 64.6068C89.7351 64.4732 89.8594 64.3037 89.9391 64.1123C90.0188 63.921 90.0517 63.7134 90.035 63.5068C90.0434 63.264 89.9864 63.0234 89.87 62.8101C89.7905 62.6119 89.649 62.4447 89.4667 62.3335C89.2887 62.2197 89.0888 62.1448 88.88 62.1135C88.6482 62.0946 88.4152 62.0946 88.1833 62.1135H85.69V64.9551H88.385ZM88.55 70.1068C88.8032 70.1046 89.0553 70.0738 89.3017 70.0151C89.5231 69.9775 89.735 69.8965 89.925 69.7768C90.1084 69.6485 90.2591 69.479 90.365 69.2818C90.485 69.0369 90.5417 68.7659 90.53 68.4935C90.5541 68.2469 90.5183 67.9982 90.4258 67.7684C90.3332 67.5386 90.1866 67.3345 89.9983 67.1735C89.5928 66.8854 89.1017 66.7432 88.605 66.7701H85.69V70.1068H88.55Z" fill="#001133"/>
<path d="M93.6833 60.0417H96.6717L99.5134 64.8267L102.337 60.0417H105.307L100.833 67.5217V72.1784H98.1384V67.4484L93.6833 60.0417Z" fill="#001133"/>
<path d="M180.473 69.1717C180.612 69.4463 180.813 69.6848 181.06 69.8683C181.324 70.0435 181.615 70.1736 181.922 70.2533C182.25 70.3427 182.59 70.3859 182.93 70.3817H183.7C183.969 70.3499 184.23 70.2691 184.47 70.1433C184.695 70.0323 184.895 69.8763 185.057 69.685C185.214 69.4662 185.298 69.2029 185.295 68.9333C185.3 68.7848 185.275 68.6367 185.222 68.4981C185.168 68.3594 185.087 68.2331 184.983 68.1267C184.738 67.9119 184.459 67.7386 184.158 67.6133C183.782 67.4704 183.396 67.354 183.003 67.265L181.702 66.9167C181.247 66.8039 180.8 66.6631 180.363 66.495C179.953 66.339 179.564 66.1294 179.208 65.8717C178.872 65.5981 178.592 65.2619 178.383 64.8817C178.167 64.4432 178.06 63.9588 178.072 63.47C178.063 62.9004 178.202 62.3383 178.475 61.8383C178.739 61.3896 179.095 61.0021 179.52 60.7017C179.965 60.3863 180.461 60.1506 180.987 60.005C181.518 59.8588 182.067 59.7848 182.618 59.785C183.236 59.7821 183.852 59.856 184.452 60.005C185.011 60.1346 185.54 60.3712 186.01 60.7017C186.462 61.0131 186.833 61.428 187.092 61.9117C187.374 62.4806 187.512 63.1101 187.495 63.745H184.892C184.886 63.4329 184.811 63.1259 184.672 62.8467C184.546 62.6207 184.37 62.4264 184.158 62.2783C183.932 62.1401 183.684 62.041 183.425 61.985C183.12 61.9555 182.813 61.9555 182.508 61.985H181.867C181.66 62.0339 181.462 62.1143 181.28 62.2233C181.113 62.3419 180.97 62.4912 180.858 62.6633C180.742 62.8565 180.684 63.0796 180.693 63.305C180.681 63.5028 180.726 63.6999 180.822 63.8733C180.959 64.0578 181.142 64.2032 181.353 64.295C181.71 64.4449 182.078 64.5675 182.453 64.6617L184.287 65.1383L185.222 65.395C185.65 65.5108 186.054 65.7033 186.413 65.9633C186.831 66.2342 187.187 66.5903 187.458 67.0083C187.755 67.5131 187.901 68.0918 187.88 68.6767C187.881 69.2117 187.775 69.7415 187.568 70.235C187.342 70.7129 187.01 71.1329 186.597 71.4633C186.127 71.8291 185.592 72.1028 185.02 72.27C183.663 72.6368 182.233 72.6368 180.877 72.27C180.283 72.1192 179.723 71.858 179.227 71.5C178.736 71.1496 178.339 70.6836 178.072 70.1433C177.791 69.5738 177.652 68.9447 177.668 68.31H180.253C180.267 68.6093 180.342 68.9026 180.473 69.1717Z" fill="#001133"/>
<path d="M195.525 60.0417L200.053 72.1784H197.285L196.368 69.4651H191.822L190.868 72.1784H188.192L192.775 60.0417H195.525ZM195.672 67.4851L194.132 63.0301L192.5 67.4851H195.672Z" fill="#001133"/>
<path d="M132.953 60.0415L138.013 68.1815V60.0415H140.525V72.1782H137.885L132.825 64.0565V72.1782H130.295V60.0415H132.953Z" fill="#001133"/>
<path d="M150.7 63.2682C150.534 63.0129 150.33 62.7843 150.095 62.5899C149.849 62.4042 149.578 62.2559 149.288 62.1499C148.989 62.0404 148.672 61.9845 148.353 61.9849C147.818 61.9652 147.288 62.0853 146.813 62.3332C146.406 62.5642 146.055 62.8837 145.787 63.2682C145.524 63.6797 145.332 64.132 145.218 64.6066C145.107 65.1123 145.052 65.6288 145.053 66.1466C145.052 66.6462 145.107 67.1444 145.218 67.6316C145.332 68.0947 145.524 68.535 145.787 68.9332C146.055 69.3177 146.406 69.6372 146.813 69.8682C147.291 70.1073 147.819 70.2268 148.353 70.2166C148.694 70.2232 149.033 70.16 149.348 70.0307C149.663 69.9014 149.949 69.7088 150.187 69.4649C150.669 68.9098 150.964 68.2171 151.03 67.4849H153.615C153.551 68.1997 153.372 68.8994 153.083 69.5566C152.818 70.1454 152.438 70.6753 151.965 71.1149C151.496 71.5545 150.94 71.8916 150.333 72.1049C149.674 72.3364 148.979 72.4542 148.28 72.4532C147.417 72.4682 146.561 72.2994 145.768 71.9582C145.066 71.6524 144.44 71.1954 143.935 70.6199C143.415 70.0384 143.016 69.3591 142.762 68.6216C142.483 67.8268 142.346 66.9889 142.358 66.1466C142.349 65.2865 142.486 64.4311 142.762 63.6166C143.016 62.8736 143.415 62.1882 143.935 61.5999C144.439 61.0133 145.064 60.544 145.768 60.2249C146.561 59.8837 147.417 59.715 148.28 59.7299C148.902 59.7388 149.52 59.8376 150.113 60.0232C150.689 60.2114 151.229 60.4967 151.708 60.8666C152.189 61.2407 152.588 61.7085 152.882 62.2416C153.186 62.811 153.379 63.4332 153.45 64.0749H150.993C150.95 63.7894 150.85 63.5153 150.7 63.2682Z" fill="#001133"/>
<path d="M190.52 6.21508C187.737 6.16228 184.974 6.68181 182.4 7.74146C179.827 8.80111 177.499 10.3783 175.56 12.3751C173.546 14.3405 171.951 16.6945 170.873 19.2944C169.796 21.8942 169.257 24.6859 169.29 27.5001C169.257 30.2952 169.797 33.0675 170.875 35.6465C171.953 38.2255 173.547 40.5567 175.56 42.4967C177.494 44.5065 179.819 46.0994 182.392 47.1776C184.965 48.2559 187.731 48.7966 190.52 48.7668C193.352 48.7934 196.16 48.2468 198.775 47.1598C201.39 46.0728 203.758 44.4679 205.737 42.4417C207.722 40.5027 209.285 38.1749 210.329 35.6039C211.374 33.0329 211.876 30.2741 211.805 27.5001C211.834 24.6967 211.304 21.9157 210.245 19.32C209.185 16.7243 207.619 14.3661 205.636 12.3837C203.654 10.4013 201.296 8.8346 198.7 7.77535C196.104 6.7161 193.323 6.18565 190.52 6.21508ZM190.52 10.0284C192.809 9.9894 195.082 10.4236 197.196 11.3038C199.309 12.1839 201.218 13.4911 202.803 15.1434C204.476 16.7313 205.799 18.6501 206.689 20.7775C207.579 22.9049 208.017 25.1944 207.973 27.5001C208.037 29.7664 207.624 32.0208 206.762 34.1177C205.9 36.2146 204.608 38.1073 202.968 39.6734C201.37 41.3172 199.457 42.6221 197.344 43.5104C195.23 44.3987 192.959 44.852 190.667 44.8434C188.373 44.8682 186.099 44.424 183.984 43.5381C181.868 42.6522 179.956 41.3433 178.365 39.6917C176.727 38.0948 175.425 36.186 174.536 34.078C173.647 31.97 173.189 29.7054 173.189 27.4176C173.189 25.1298 173.647 22.8652 174.536 20.7572C175.425 18.6492 176.727 16.7404 178.365 15.1434C179.947 13.4825 181.858 12.1698 183.977 11.2891C186.095 10.4084 188.373 9.97904 190.667 10.0284H190.52Z" fill="white"/>
<path d="M181.097 24.4567C181.311 22.1571 182.397 20.0266 184.132 18.5027C185.867 16.9787 188.12 16.1768 190.428 16.2617C197.212 16.2617 201.428 21.1751 201.428 27.7567C201.507 29.239 201.279 30.7215 200.759 32.1117C200.238 33.5019 199.437 34.77 198.405 35.8366C197.373 36.9033 196.131 37.7457 194.759 38.3112C193.387 38.8767 191.912 39.1532 190.428 39.1234C188.102 39.1895 185.837 38.368 184.094 36.8257C182.351 35.2834 181.26 33.1357 181.042 30.8184H186.395C186.56 33.6784 188.412 34.6867 191.07 34.6867C194.095 34.6867 196.057 31.8817 196.057 27.5917C196.057 23.3017 194.352 20.6984 191.18 20.6984C190.617 20.6163 190.043 20.6496 189.493 20.7962C188.943 20.9428 188.429 21.1997 187.981 21.5512C187.534 21.9027 187.162 22.3415 186.89 22.841C186.617 23.3405 186.449 23.8902 186.395 24.4567H187.953L183.737 28.6734L179.52 24.4567H181.097Z" fill="white"/>
<path d="M142.688 6.21494C145.492 6.1855 148.273 6.71596 150.868 7.77521C153.464 8.83445 155.822 10.4012 157.805 12.3836C159.787 14.366 161.354 16.7241 162.413 19.3198C163.472 21.9155 164.003 24.6966 163.973 27.4999C164.044 30.274 163.542 33.0328 162.498 35.6038C161.454 38.1748 159.89 40.5026 157.905 42.4416C155.926 44.4678 153.558 46.0727 150.943 47.1597C148.328 48.2467 145.52 48.7933 142.688 48.7666C139.899 48.7987 137.132 48.2589 134.559 47.1805C131.986 46.1021 129.661 44.5081 127.728 42.4966C125.715 40.5572 124.12 38.2262 123.042 35.647C121.963 33.0679 121.424 30.2952 121.458 27.4999C121.43 24.6919 121.971 21.9072 123.049 19.314C124.127 16.7208 125.718 14.3728 127.728 12.4116C129.664 10.4082 131.991 8.82421 134.564 7.75819C137.138 6.69217 139.903 6.16687 142.688 6.21494ZM126.188 21.7616C125.556 23.6072 125.252 25.5494 125.29 27.4999C125.267 29.7822 125.712 32.045 126.598 34.1483C127.484 36.2516 128.792 38.1508 130.442 39.7283C132.033 41.3798 133.945 42.6888 136.06 43.5746C138.176 44.4605 140.45 44.9047 142.743 44.8799C145.054 44.894 147.343 44.44 149.473 43.5451C151.603 42.6502 153.53 41.3331 155.137 39.6733C156.273 38.5964 157.249 37.3615 158.033 36.0066L150.022 32.4316C149.715 33.7598 148.972 34.947 147.912 35.8042C146.853 36.6614 145.536 37.1393 144.173 37.1616V40.3333H141.735V37.0699C139.352 37.0189 137.065 36.1221 135.282 34.5399L138.215 31.5883C138.836 32.2011 139.576 32.6799 140.39 32.9953C141.204 33.3106 142.073 33.4557 142.945 33.4216C144.21 33.4216 145.585 32.9449 145.585 31.3133C145.594 31.0729 145.548 30.8335 145.449 30.6141C145.351 30.3946 145.203 30.2009 145.017 30.0483L143 29.2049L140.47 28.0866L137.115 26.5833L126.188 21.7616ZM142.688 10.0283C140.404 9.98657 138.136 10.4197 136.028 11.3002C133.92 12.1806 132.018 13.4893 130.442 15.1433C129.566 16.0211 128.774 16.9786 128.077 18.0033L136.198 21.6699C136.614 20.5503 137.366 19.5865 138.35 18.9104C139.335 18.2343 140.504 17.8791 141.698 17.8933V14.6666H144.137V17.8566C146.078 17.9145 147.948 18.5959 149.472 19.7999L146.667 22.6783C145.602 21.895 144.321 21.4596 143 21.4316C141.937 21.4316 140.452 21.7433 140.452 23.0816C140.453 23.2741 140.517 23.4609 140.635 23.6133L143.367 24.8233L145.2 25.6483L148.61 27.1699L159.5 32.0099C159.874 30.5236 160.059 28.996 160.05 27.4633C160.095 25.1677 159.664 22.8877 158.784 20.7672C157.903 18.6467 156.593 16.7318 154.935 15.1433C153.361 13.5023 151.466 12.2018 149.369 11.322C147.272 10.4422 145.017 10.0019 142.743 10.0283H142.688Z" fill="white"/>
</g>
<defs>
<clipPath id="clip0">
<rect width="220" height="77" fill="white"/>
</clipPath>
</defs>
</svg>
