<svg width="90" height="90" viewBox="0 0 90 90" fill="none" xmlns="http://www.w3.org/2000/svg">
<path d="M88.5938 12.6562V1.40625H46.4062V12.6562H49.2188V15.4688H46.4062V19.6875H32.1441C31.5155 17.2688 29.3316 15.4688 26.7188 15.4688C23.6166 15.4688 21.0938 17.9916 21.0938 21.0938C21.0938 23.7066 22.8937 25.8905 25.3125 26.5191V38.0405C12.0108 38.7759 1.40625 49.7995 1.40625 63.2812C1.40625 77.2383 12.7617 88.5938 26.7188 88.5938C40.2019 88.5938 51.2241 77.9892 51.9595 64.6875H62.0747C62.7033 67.1077 64.8872 68.9062 67.5 68.9062C70.6022 68.9062 73.125 66.3834 73.125 63.2812C73.125 60.667 71.325 58.4845 68.9062 57.8559V40.7812H88.5938V29.5312H85.7812V26.7188H88.5938V15.4688H85.7812V12.6562H88.5938ZM49.2188 4.21875H85.7812V9.84375H49.2188V4.21875ZM23.9062 21.0938C23.9062 19.5427 25.1677 18.2812 26.7188 18.2812C28.2698 18.2812 29.5312 19.5427 29.5312 21.0938C29.5312 22.6448 28.2698 23.9062 26.7188 23.9062C25.1677 23.9062 23.9062 22.6448 23.9062 21.0938ZM28.125 53.4094C31.0317 53.3405 33.5489 53.0719 35.6878 52.688C36.8677 55.3472 37.71 58.4184 37.897 61.875H28.125V53.4094ZM28.125 50.5969V42.3281C29.8673 43.9031 32.3297 46.5033 34.3659 50.0541C32.5659 50.3409 30.4847 50.5378 28.125 50.5969ZM25.3125 42.3281V50.5969C22.9528 50.5378 20.8716 50.3395 19.0716 50.0541C21.1078 46.5033 23.5702 43.9031 25.3125 42.3281ZM25.3125 53.4094V61.875H15.5405C15.7289 58.417 16.5712 55.3472 17.7497 52.688C19.8886 53.0719 22.4058 53.3405 25.3125 53.4094ZM12.7252 61.875H4.29047C4.57453 57.323 6.21 53.1436 8.80875 49.718C9.96609 50.3733 11.9545 51.3042 14.9077 52.072C13.7236 54.9183 12.9009 58.192 12.7252 61.875ZM12.7252 64.6875C12.9009 68.3705 13.7236 71.6442 14.9077 74.4905C11.9531 75.2583 9.96609 76.1892 8.80875 76.8445C6.20859 73.4189 4.57313 69.2395 4.29047 64.6875H12.7252ZM15.5405 64.6875H25.3125V73.1531C22.4058 73.222 19.8886 73.4906 17.7497 73.8745C16.5698 71.2153 15.7275 68.1455 15.5405 64.6875ZM25.3125 75.9656V84.2344C23.5702 82.6594 21.1078 80.0592 19.0716 76.5084C20.8716 76.2216 22.9528 76.0247 25.3125 75.9656ZM28.125 84.2344V75.9656C30.4847 76.0247 32.5659 76.223 34.3659 76.5084C32.3297 80.0592 29.8673 82.6594 28.125 84.2344ZM28.125 73.1531V64.6875H37.897C37.7086 68.1455 36.8662 71.2153 35.6878 73.8745C33.5489 73.4906 31.0317 73.222 28.125 73.1531ZM40.7123 64.6875H49.147C48.863 69.2381 47.2289 73.4189 44.6287 76.8445C43.4714 76.1892 41.483 75.2583 38.5298 74.4905C39.7139 71.6442 40.5366 68.3705 40.7123 64.6875ZM40.7123 61.875C40.5366 58.192 39.7139 54.9183 38.5298 52.072C41.4844 51.3042 43.4714 50.3733 44.6287 49.718C47.2289 53.1422 48.8644 57.323 49.147 61.875H40.7123ZM37.2966 49.4705C35.3784 45.8677 33.0202 43.1002 31.0837 41.2144C35.6063 42.1073 39.6422 44.3588 42.7556 47.5256C41.6573 48.0895 39.8714 48.8433 37.2966 49.4705ZM22.3552 41.2144C20.4188 43.1002 18.0605 45.8677 16.1423 49.4705C13.5675 48.8433 11.7802 48.0895 10.6833 47.5256C13.7953 44.3588 17.8313 42.1073 22.3552 41.2144ZM10.6833 79.0369C11.7802 78.473 13.5661 77.7192 16.1409 77.092C18.0591 80.6948 20.4173 83.4623 22.3538 85.3481C17.8312 84.4552 13.7953 82.2038 10.6833 79.0369ZM31.0837 85.3481C33.0202 83.4623 35.3784 80.6948 37.2966 77.092C39.8714 77.7192 41.6587 78.473 42.7542 79.0369C39.6422 82.2038 35.6063 84.4552 31.0837 85.3481ZM70.3125 63.2812C70.3125 64.8323 69.0511 66.0938 67.5 66.0938C65.9489 66.0938 64.6875 64.8323 64.6875 63.2812C64.6875 61.7302 65.9489 60.4688 67.5 60.4688C69.0511 60.4688 70.3125 61.7302 70.3125 63.2812ZM66.0938 57.8559C64.1264 58.3678 62.5866 59.9077 62.0747 61.875H51.9595C51.2494 49.0416 40.9584 38.7506 28.125 38.0405V26.5191C30.0923 26.0072 31.6322 24.4673 32.1441 22.5H46.4062V26.7188H49.2188V29.5312H46.4062V40.7812H66.0938V57.8559ZM85.7812 37.9688H49.2188V32.3438H85.7812V37.9688ZM82.9688 29.5312H52.0312V26.7188H82.9688V29.5312ZM85.7812 23.9062H49.2188V18.2812H85.7812V23.9062ZM82.9688 15.4688H52.0312V12.6562H82.9688V15.4688Z" fill="white"/>
<path d="M71.7188 43.5938H74.5312V46.4062H71.7188V43.5938Z" fill="white"/>
<path d="M71.7188 49.2188H74.5312V52.0312H71.7188V49.2188Z" fill="white"/>
<path d="M71.7188 54.8438H74.5312V57.6562H71.7188V54.8438Z" fill="white"/>
<path d="M40.7812 12.6562H43.5938V15.4688H40.7812V12.6562Z" fill="white"/>
<path d="M35.1562 12.6562H37.9688V15.4688H35.1562V12.6562Z" fill="white"/>
<path d="M29.5312 12.6562H32.3438V15.4688H29.5312V12.6562Z" fill="white"/>
</svg>
