<svg width="40" height="40" viewBox="0 0 40 40" fill="none" xmlns="http://www.w3.org/2000/svg">
<path d="M20 0C8.97194 0 0 8.97194 0 20C0 31.0281 8.97194 40 20 40C31.0281 40 40 31.0281 40 20C40 8.97194 31.0281 0 20 0ZM20 37.7118C10.2337 37.7118 2.28824 29.7662 2.28824 20C2.28824 10.2338 10.2337 2.28824 20 2.28824C29.7663 2.28824 37.7118 10.2338 37.7118 20C37.7118 29.7662 29.7663 37.7118 20 37.7118Z" fill="white"/>
<path d="M24.6322 9.14697H21.9201C19.7004 9.14697 17.8945 10.9529 17.8945 13.1726V16.2236H15.3679C14.7359 16.2236 14.2238 16.7358 14.2238 17.3677C14.2238 17.9997 14.7359 18.5119 15.3679 18.5119H17.8945V29.1055C17.8945 29.7374 18.4067 30.2496 19.0386 30.2496C19.6705 30.2496 20.1827 29.7374 20.1827 29.1055V18.5119H24.0918C24.7237 18.5119 25.2359 17.9997 25.2359 17.3677C25.2359 16.7358 24.7237 16.2236 24.0918 16.2236H20.1827V13.1726C20.1827 12.2146 20.9621 11.4352 21.9201 11.4352H24.6321C25.264 11.4352 25.7762 10.923 25.7762 10.2911C25.7762 9.65916 25.264 9.14697 24.6322 9.14697Z" fill="white"/>
</svg>
