<svg width="40" height="40" viewBox="0 0 40 40" fill="none" xmlns="http://www.w3.org/2000/svg">
<path d="M20 0C9.00787 0 0 9.086 0 20.0781C0 31.0065 8.92578 40 20 40C31.0605 40 40 31.0199 40 20.0781C40 9.086 30.9921 0 20 0ZM23.5156 37.3047C22.3907 37.5391 21.1954 37.6562 20 37.6562C18.8046 37.6562 17.6093 37.5391 16.4844 37.3047V31.8204C16.4844 30.5078 16.8359 30.0391 17.3047 29.4061C17.5433 29.1333 17.6874 28.8885 18.7576 27.2736L16.9531 26.9922C12.3123 26.3126 10.4843 23.8983 9.75769 22.0233C8.82019 19.5157 9.31244 16.3748 11.0001 14.3829C11.2579 14.0781 11.4688 13.5623 11.2814 13.0234C10.9296 11.9452 10.9766 10.2344 11.2109 9.57794C12.4536 9.75555 13.7314 10.6458 14.7971 11.2891C15.2881 11.5756 15.5457 11.4999 15.7812 11.5234C16.6376 11.3452 17.9733 10.914 20.0235 10.914C21.2891 10.914 22.6251 11.1014 23.9377 11.4764C24.1724 11.4709 24.5496 11.6705 25.2032 11.2891C26.3171 10.6104 27.5516 9.75067 28.7891 9.57794C29.0234 10.2344 29.0704 11.9452 28.7189 13.0234C28.5312 13.5623 28.7421 14.0781 29.0002 14.3829C30.6876 16.3751 31.1798 19.5157 30.2423 22.0233C29.5157 23.8983 27.6877 26.3126 23.0469 26.9922L21.2424 27.2736C22.3486 28.9429 22.4652 29.1431 22.6956 29.4061C23.1641 30.0391 23.5156 30.5078 23.5156 31.8204V37.3047ZM25.8594 36.6251V31.8204C25.8594 30.4843 25.578 29.5938 25.2029 28.9374C28.7656 27.9767 31.297 25.867 32.4219 22.8436C33.6172 19.6564 33.0783 15.8594 31.0858 13.2343C31.4377 11.6641 31.4377 9.15619 30.5939 7.98431C30.2188 7.46887 29.7031 7.1875 29.0469 7.1875C29.0234 7.1875 29.0234 7.1875 29.0234 7.1875C27.2061 7.28577 25.7758 8.20099 24.2422 9.13269C22.836 8.75763 21.4062 8.57025 19.9765 8.57025C18.5236 8.57025 17.0703 8.78113 15.7816 9.13269C14.1672 8.15918 12.7505 7.28333 10.8829 7.1875C10.2969 7.1875 9.78119 7.46887 9.40613 7.98431C8.56262 9.15619 8.56262 11.6641 8.91418 13.2343C6.92169 15.8594 6.38275 19.6796 7.57812 22.8436C8.703 25.867 11.2344 27.9767 14.7971 28.9374C14.5062 29.4461 14.2761 30.1025 14.1855 30.9909C13.4659 31.239 12.8418 31.3199 12.2614 31.1493C11.6492 30.9683 11.1722 30.5597 10.7578 29.8627C9.82697 28.299 8.24158 27.0224 6.43646 27.1884L6.64246 29.523C7.47833 29.4464 8.31024 30.3308 8.74237 31.0599C9.45526 32.2604 10.4156 33.0478 11.5976 33.3969C12.475 33.6554 13.277 33.6493 14.1406 33.465V36.6251C7.32025 34.2343 2.34375 27.7188 2.34375 20.0781C2.34375 10.3751 10.2969 2.34375 20 2.34375C29.7031 2.34375 37.6562 10.3751 37.6562 20.0781C37.6562 27.7188 32.6797 34.2343 25.8594 36.6251Z" fill="white"/>
</svg>
