<svg width="40" height="40" viewBox="0 0 40 40" fill="none" xmlns="http://www.w3.org/2000/svg">
<g clip-path="url(#clip0)">
<path d="M20 1.74846e-06C31.0456 7.82821e-07 40 8.95443 40 20C40 31.0456 31.0456 40 20 40C8.95443 40 2.71409e-06 31.0456 1.74846e-06 20C0.012368 8.95964 8.95963 0.0123725 20 1.74846e-06ZM20 38.6667C30.3092 38.6667 38.6667 30.3092 38.6667 20C38.6667 9.69076 30.3092 1.33333 20 1.33334C9.69075 1.33334 1.33333 9.69076 1.33333 20C1.34505 30.3044 9.69564 38.655 20 38.6667Z" fill="white"/>
<path d="M11.3333 8L28.6667 8C30.5068 8.00228 31.9977 9.49316 32 11.3333L32 28.6667C31.9977 30.5068 30.5068 31.9977 28.6667 32L11.3333 32C9.49317 31.9977 8.00228 30.5068 8 28.6667L8 11.3333C8.00228 9.49317 9.49316 8.00228 11.3333 8ZM9.33333 28.6667C9.33333 29.7712 10.2288 30.6667 11.3333 30.6667L28.6667 30.6667C29.7712 30.6667 30.6667 29.7712 30.6667 28.6667L30.6667 11.3333C30.6667 10.2288 29.7712 9.33333 28.6667 9.33333L11.3333 9.33334C10.2288 9.33334 9.33333 10.2288 9.33333 11.3333L9.33333 28.6667Z" fill="white"/>
<path d="M20 13.3333C23.6819 13.3333 26.6666 16.318 26.6666 19.9999C26.6666 23.6819 23.6819 26.6666 20 26.6666C16.318 26.6666 13.3333 23.6819 13.3333 19.9999C13.3372 16.3196 16.3196 13.3372 20 13.3333ZM20 25.3333C22.9456 25.3333 25.3333 22.9456 25.3333 19.9999C25.3333 17.0543 22.9456 14.6666 20 14.6666C17.0543 14.6666 14.6666 17.0543 14.6666 19.9999C14.6699 22.9439 17.0559 25.33 20 25.3333Z" fill="white"/>
<path d="M12.6666 10.6667C13.7711 10.6667 14.6666 11.5623 14.6666 12.6667C14.6666 13.7712 13.7711 14.6667 12.6666 14.6667C11.5621 14.6667 10.6666 13.7712 10.6666 12.6667C10.6666 11.5623 11.5621 10.6667 12.6666 10.6667ZM12.6666 13.3334C13.0348 13.3334 13.3333 13.0349 13.3333 12.6667C13.3333 12.2986 13.0348 12.0001 12.6666 12.0001C12.2985 12.0001 12 12.2986 12 12.6667C12 13.0349 12.2985 13.3334 12.6666 13.3334Z" fill="white"/>
</g>
<defs>
<clipPath id="clip0">
<rect width="40" height="40" fill="white" transform="matrix(-1 8.74228e-08 8.74228e-08 1 40 0)"/>
</clipPath>
</defs>
</svg>
