<svg width="280" height="253" viewBox="0 0 280 253" fill="none" xmlns="http://www.w3.org/2000/svg">
<path d="M277.439 106.4L275.846 107.555L267.977 113.235L244.368 130.245L236.498 135.895L142.03 203.967L47.5619 135.801L39.6922 130.121L0.343506 101.687L135.753 5.71173L142.03 10.4247L14.5215 101.687L142.03 192.949L264.854 106.4L203.426 63.9211L143.623 106.4L135.753 101.687L203.426 54.4952L277.439 106.4Z" fill="#001133"/>
<path d="M142.03 204.216L0 101.687H0.218604L135.753 5.46198L142.373 10.4246L142.155 10.5807L14.8338 101.687L142.03 192.699L264.51 106.4L203.426 64.1707L143.654 106.649L135.409 101.687H135.659L203.426 54.2455L277.939 106.4L268.258 113.391L236.623 136.051L142.03 204.216ZM0.68704 101.687L142.03 203.717L277.096 106.4L203.426 54.7136L136.096 101.531L143.654 106.119L203.426 63.6713L265.197 106.4H264.948L142.03 193.199L14.178 101.687H14.3966L141.718 10.4246L135.722 5.96136L0.68704 101.687Z" fill="#001133"/>
<path d="M236.716 134.74H236.31V135.895H236.716V134.74Z" fill="#001133"/>
<path d="M47.7805 134.74H47.3745V135.801H47.7805V134.74Z" fill="#001133"/>
<path d="M244.368 130.245V178.779L142.03 252.75L39.6922 178.779V130.12L47.5619 135.801V174.066L142.03 241.733L236.498 175.658V135.895L244.368 130.245Z" fill="#001133"/>
<path d="M142.03 253L39.5048 178.904V129.715L47.7805 135.676V173.973L142.03 241.483L236.31 175.533V135.801L244.586 129.84V178.904L142.03 253ZM39.9108 178.686L142.03 252.501L244.18 178.686V130.62L236.685 135.988V175.752L142.03 241.982L47.3745 174.16V135.895L39.9108 130.495V178.686Z" fill="#001133"/>
<path d="M244.586 128.435H244.18V130.214H244.586V128.435Z" fill="#001133"/>
<path d="M39.9108 129.559H39.5048V130.089H39.9108V129.559Z" fill="#001133"/>
<path d="M245.96 109.552L142.03 185.084L26.7321 102.28L135.753 24.5947L143.623 29.3076L41.2848 101.687L142.03 174.066L244.368 101.687L245.96 109.552Z" fill="#001133"/>
<path d="M142.03 185.334L26.4823 102.374L26.7009 102.217L135.722 24.3449L143.966 29.3075H143.716L41.5971 101.687L142.03 173.817L244.524 101.344L246.179 109.646L142.03 185.334ZM27.0756 102.28L142.03 184.834L245.742 109.459L244.243 102.03L142.03 174.316L40.9413 101.687H41.1599L143.248 29.3075L135.753 24.9691L27.0756 102.28Z" fill="#001133"/>
<path d="M277.439 105.963V186.644H269.569V111.643L277.439 105.963Z" fill="#001133"/>
<path d="M277.627 186.863H269.382V111.55L277.564 105.651L277.627 186.863ZM269.757 186.457H277.252V106.369L269.757 111.737V186.457Z" fill="#001133"/>
<path d="M276.065 106.4H275.659V107.523H276.065V106.4Z" fill="#001133"/>
<path d="M268.195 109.552H267.789V113.204H268.195V109.552Z" fill="#001133"/>
<path d="M140.468 12.7967C143.952 12.7967 146.777 9.97397 146.777 6.49197C146.777 3.00997 143.952 0.187256 140.468 0.187256C136.984 0.187256 134.16 3.00997 134.16 6.49197C134.16 9.97397 136.984 12.7967 140.468 12.7967Z" fill="#001133"/>
<path d="M140.531 12.984C139.246 12.984 137.99 12.6032 136.922 11.8899C135.854 11.1765 135.021 10.1626 134.53 8.97636C134.038 7.7901 133.909 6.48478 134.16 5.22546C134.411 3.96614 135.029 2.80938 135.938 1.90146C136.846 0.99354 138.004 0.375239 139.264 0.124745C140.524 -0.12575 141.83 0.00281289 143.017 0.494176C144.204 0.985538 145.218 1.81763 145.932 2.88523C146.646 3.95283 147.027 5.20799 147.027 6.49198C147.027 8.21376 146.342 9.86503 145.124 11.0825C143.906 12.3 142.254 12.984 140.531 12.984ZM140.531 0.499386C139.296 0.499386 138.088 0.86549 137.061 1.5514C136.034 2.23731 135.233 3.21223 134.76 4.35286C134.288 5.49348 134.164 6.7486 134.405 7.95949C134.646 9.17037 135.241 10.2826 136.114 11.1556C136.988 12.0286 138.101 12.6232 139.312 12.864C140.524 13.1049 141.78 12.9813 142.921 12.5088C144.062 12.0363 145.038 11.2362 145.724 10.2097C146.41 9.18317 146.777 7.97628 146.777 6.74168C146.789 5.91408 146.637 5.09228 146.328 4.32409C146.02 3.5559 145.562 2.85666 144.981 2.26706C144.4 1.67745 143.707 1.20926 142.943 0.889713C142.179 0.57017 141.359 0.405659 140.531 0.405752V0.499386Z" fill="#001133"/>
<path d="M140.468 32.4599C143.952 32.4599 146.777 29.6372 146.777 26.1552C146.777 22.6732 143.952 19.8505 140.468 19.8505C136.984 19.8505 134.16 22.6732 134.16 26.1552C134.16 29.6372 136.984 32.4599 140.468 32.4599Z" fill="#001133"/>
<path d="M140.531 32.6472C139.246 32.6472 137.99 32.2664 136.922 31.5531C135.854 30.8397 135.021 29.8258 134.53 28.6396C134.038 27.4533 133.909 26.148 134.16 24.8887C134.411 23.6293 135.029 22.4726 135.938 21.5647C136.846 20.6567 138.004 20.0384 139.264 19.788C140.524 19.5375 141.83 19.666 143.017 20.1574C144.204 20.6487 145.218 21.4808 145.932 22.5484C146.646 23.616 147.027 24.8712 147.027 26.1552C147.027 27.877 146.342 29.5282 145.124 30.7457C143.906 31.9632 142.254 32.6472 140.531 32.6472ZM140.531 20.1626C139.296 20.1626 138.088 20.5287 137.061 21.2146C136.034 21.9005 135.233 22.8754 134.76 24.0161C134.288 25.1567 134.164 26.4118 134.405 27.6227C134.646 28.8336 135.241 29.9458 136.114 30.8188C136.988 31.6918 138.101 32.2864 139.312 32.5272C140.524 32.7681 141.78 32.6445 142.921 32.172C144.062 31.6995 145.038 30.8995 145.724 29.8729C146.41 28.8464 146.777 27.6395 146.777 26.4049C146.789 25.5773 146.637 24.7555 146.328 23.9873C146.02 23.2191 145.562 22.5199 144.981 21.9303C144.4 21.3407 143.707 20.8725 142.943 20.5529C142.179 20.2334 141.359 20.0689 140.531 20.069V20.1626Z" fill="#001133"/>
<path d="M140.468 109.583C143.952 109.583 146.777 106.761 146.777 103.279C146.777 99.7967 143.952 96.974 140.468 96.974C136.984 96.974 134.16 99.7967 134.16 103.279C134.16 106.761 136.984 109.583 140.468 109.583Z" fill="#001133"/>
<path d="M140.531 109.739C139.245 109.739 137.988 109.358 136.919 108.643C135.85 107.928 135.017 106.913 134.527 105.725C134.036 104.537 133.909 103.23 134.162 101.969C134.416 100.709 135.037 99.5526 135.949 98.6459C136.86 97.7392 138.021 97.1234 139.283 96.8765C140.545 96.6295 141.852 96.7625 143.038 97.2587C144.225 97.7548 145.237 98.5918 145.947 99.6635C146.657 100.735 147.033 101.993 147.027 103.279C147.018 104.995 146.33 106.638 145.113 107.849C143.896 109.06 142.248 109.739 140.531 109.739ZM140.531 97.2549C139.296 97.2549 138.088 97.621 137.061 98.3069C136.034 98.9928 135.233 99.9677 134.76 101.108C134.288 102.249 134.164 103.504 134.405 104.715C134.646 105.926 135.241 107.038 136.114 107.911C136.988 108.784 138.101 109.379 139.312 109.62C140.524 109.86 141.78 109.737 142.921 109.264C144.062 108.792 145.038 107.992 145.724 106.965C146.41 105.939 146.777 104.732 146.777 103.497C146.789 102.67 146.637 101.848 146.328 101.08C146.02 100.311 145.562 99.6122 144.981 99.0225C144.4 98.4329 143.707 97.9647 142.943 97.6452C142.179 97.3257 141.359 97.1611 140.531 97.1612V97.2549Z" fill="#001133"/>
<path d="M242.806 112.705C246.29 112.705 249.114 109.882 249.114 106.4C249.114 102.918 246.29 100.095 242.806 100.095C239.322 100.095 236.498 102.918 236.498 106.4C236.498 109.882 239.322 112.705 242.806 112.705Z" fill="#001133"/>
<path d="M242.806 112.892C241.521 112.892 240.266 112.511 239.197 111.798C238.129 111.084 237.297 110.071 236.805 108.884C236.313 107.698 236.185 106.393 236.435 105.133C236.686 103.874 237.305 102.717 238.213 101.809C239.121 100.901 240.279 100.283 241.539 100.033C242.799 99.7821 244.105 99.9107 245.292 100.402C246.479 100.893 247.493 101.726 248.207 102.793C248.921 103.861 249.302 105.116 249.302 106.4C249.302 108.122 248.617 109.773 247.399 110.99C246.181 112.208 244.529 112.892 242.806 112.892ZM242.806 100.407C241.571 100.407 240.363 100.773 239.336 101.459C238.309 102.145 237.508 103.12 237.036 104.261C236.563 105.401 236.439 106.657 236.68 107.867C236.921 109.078 237.516 110.191 238.39 111.064C239.263 111.937 240.376 112.531 241.588 112.772C242.799 113.013 244.055 112.889 245.196 112.417C246.338 111.944 247.313 111.144 247.999 110.118C248.686 109.091 249.052 107.884 249.052 106.65C249.064 105.822 248.912 105 248.604 104.232C248.295 103.464 247.837 102.765 247.256 102.175C246.675 101.585 245.982 101.117 245.218 100.798C244.454 100.478 243.634 100.314 242.806 100.314V100.407Z" fill="#001133"/>
<path d="M273.504 195.321C276.988 195.321 279.813 192.498 279.813 189.017C279.813 185.535 276.988 182.712 273.504 182.712C270.02 182.712 267.196 185.535 267.196 189.017C267.196 192.498 270.02 195.321 273.504 195.321Z" fill="#001133"/>
<path d="M273.504 195.508C272.22 195.508 270.964 195.128 269.896 194.414C268.827 193.701 267.995 192.687 267.503 191.501C267.011 190.315 266.883 189.009 267.133 187.75C267.384 186.491 268.003 185.334 268.911 184.426C269.82 183.518 270.977 182.9 272.237 182.649C273.497 182.399 274.803 182.527 275.99 183.019C277.177 183.51 278.192 184.342 278.905 185.41C279.619 186.477 280 187.733 280 189.017C280 190.738 279.316 192.39 278.097 193.607C276.879 194.825 275.227 195.508 273.504 195.508ZM273.504 183.024C272.269 183.024 271.061 183.39 270.034 184.076C269.007 184.762 268.207 185.737 267.734 186.877C267.261 188.018 267.138 189.273 267.379 190.484C267.62 191.695 268.214 192.807 269.088 193.68C269.961 194.553 271.074 195.148 272.286 195.389C273.497 195.629 274.753 195.506 275.895 195.033C277.036 194.561 278.011 193.761 278.698 192.734C279.384 191.708 279.75 190.501 279.75 189.266C279.785 188.433 279.647 187.601 279.347 186.823C279.047 186.045 278.589 185.337 278.004 184.743C277.418 184.149 276.716 183.681 275.942 183.369C275.168 183.058 274.339 182.908 273.504 182.93V183.024Z" fill="#001133"/>
</svg>
