<svg width="168" height="48" viewBox="0 0 168 48" fill="none" xmlns="http://www.w3.org/2000/svg">
<g clip-path="url(#clip0)">
<path d="M53.2166 20.1865L52.9111 20.4056L51.4016 21.4833L46.873 24.7106L45.3635 25.7824L27.2432 38.6973L9.12301 25.7646L7.61349 24.6869L0.0658875 19.2924L26.0392 1.08364L27.2432 1.97779L2.78542 19.2924L27.2432 36.607L50.8025 20.1865L39.0199 12.1273L27.5487 20.1865L26.0392 19.2924L39.0199 10.339L53.2166 20.1865Z" fill="white"/>
<path d="M27.2432 38.7446L0 19.2924H0.0419311L26.0392 1.03627L27.3091 1.97779L27.2672 2.0074L2.84533 19.2924L27.2432 36.5596L50.7366 20.1865L39.0199 12.1747L27.5547 20.2339L25.9733 19.2924H26.0212L39.0199 10.2916L53.3124 20.1865L51.4555 21.513L45.3874 25.812L27.2432 38.7446ZM0.131783 19.2924L27.2432 38.6499L53.1507 20.1865L39.0199 10.3805L26.1051 19.2628L27.5547 20.1332L39.0199 12.0799L50.8684 20.1865H50.8205L27.2432 36.6543L2.71953 19.2924H2.76146L27.1833 1.97779L26.0332 1.13101L0.131783 19.2924Z" fill="white"/>
<path d="M45.4054 25.5633H45.3275V25.7824H45.4054V25.5633Z" fill="white"/>
<path d="M9.16494 25.5633H9.08707V25.7646H9.16494V25.5633Z" fill="white"/>
<path d="M46.873 24.7106V33.9186L27.2432 47.9526L7.61349 33.9186V24.6869L9.12301 25.7646V33.0244L27.2432 45.8623L45.3635 33.3264V25.7824L46.873 24.7106Z" fill="white"/>
<path d="M27.2432 48L7.57755 33.9423V24.6099L9.16494 25.7409V33.0067L27.2432 45.815L45.3275 33.3027V25.7646L46.9149 24.6336V33.9423L27.2432 48ZM7.65542 33.9008L27.2432 47.9053L46.837 33.9008V24.7816L45.3994 25.8001V33.3442L27.2432 45.9097L9.08707 33.0422V25.7824L7.65542 24.758V33.9008Z" fill="white"/>
<path d="M46.9149 24.3671H46.8371V24.7047H46.9149V24.3671Z" fill="white"/>
<path d="M7.65542 24.5803H7.57755V24.681H7.65542V24.5803Z" fill="white"/>
<path d="M47.1785 20.7846L27.2432 35.1147L5.12758 19.4049L26.0392 4.66617L27.5487 5.56033L7.91899 19.2924L27.2432 33.0244L46.873 19.2924L47.1785 20.7846Z" fill="white"/>
<path d="M27.2432 35.1621L5.07965 19.4226L5.12158 19.393L26.0332 4.6188L27.6146 5.56033H27.5667L7.97889 19.2924L27.2432 32.9771L46.9029 19.2272L47.2204 20.8024L27.2432 35.1621ZM5.19346 19.4049L27.2432 35.0674L47.1366 20.7668L46.849 19.3575L27.2432 33.0718L7.85309 19.2924H7.89503L27.4769 5.56033L26.0392 4.73723L5.19346 19.4049Z" fill="white"/>
<path d="M53.2166 20.1036V35.4108H51.7071V21.1813L53.2166 20.1036Z" fill="white"/>
<path d="M53.2525 35.4523H51.6711V21.1636L53.2405 20.0444L53.2525 35.4523ZM51.743 35.3753H53.1806V20.1806L51.743 21.1991V35.3753Z" fill="white"/>
<path d="M52.953 20.1865H52.8751V20.3997H52.953V20.1865Z" fill="white"/>
<path d="M51.4435 20.7846H51.3656V21.4774H51.4435V20.7846Z" fill="white"/>
<path d="M26.9437 2.42783C27.612 2.42783 28.1537 1.8923 28.1537 1.23168C28.1537 0.571065 27.612 0.0355296 26.9437 0.0355296C26.2755 0.0355296 25.7337 0.571065 25.7337 1.23168C25.7337 1.8923 26.2755 2.42783 26.9437 2.42783Z" fill="white"/>
<path d="M26.9557 2.46336C26.7093 2.46336 26.4684 2.39112 26.2635 2.25578C26.0586 2.12045 25.8989 1.92808 25.8046 1.70302C25.7103 1.47796 25.6856 1.23031 25.7337 0.991391C25.7818 0.752468 25.9004 0.533004 26.0747 0.36075C26.2489 0.188497 26.471 0.0711906 26.7126 0.023666C26.9543 -0.0238587 27.2049 0.000532717 27.4325 0.0937557C27.6602 0.186979 27.8548 0.344846 27.9917 0.547395C28.1286 0.749944 28.2017 0.988076 28.2017 1.23168C28.2017 1.55834 28.0704 1.87162 27.8367 2.10261C27.6031 2.33359 27.2862 2.46336 26.9557 2.46336V2.46336ZM26.9557 0.0947442C26.7188 0.0947442 26.4871 0.164203 26.2901 0.294336C26.0931 0.42447 25.9396 0.609433 25.8489 0.825837C25.7582 1.04224 25.7345 1.28037 25.7807 1.5101C25.8269 1.73983 25.941 1.95086 26.1086 2.11648C26.2761 2.28211 26.4896 2.39491 26.722 2.4406C26.9544 2.4863 27.1953 2.46285 27.4142 2.37321C27.6331 2.28357 27.8202 2.13178 27.9518 1.93702C28.0835 1.74226 28.1537 1.51329 28.1537 1.27905C28.1561 1.12204 28.1269 0.966123 28.0678 0.82038C28.0086 0.674636 27.9208 0.541974 27.8093 0.430112C27.6978 0.318251 27.5649 0.229423 27.4184 0.168798C27.2718 0.108174 27.1146 0.0769619 26.9557 0.0769796V0.0947442Z" fill="white"/>
<path d="M26.9437 6.1584C27.612 6.1584 28.1537 5.62287 28.1537 4.96225C28.1537 4.30163 27.612 3.7661 26.9437 3.7661C26.2755 3.7661 25.7337 4.30163 25.7337 4.96225C25.7337 5.62287 26.2755 6.1584 26.9437 6.1584Z" fill="white"/>
<path d="M26.9557 6.19393C26.7093 6.19393 26.4684 6.12169 26.2635 5.98636C26.0586 5.85102 25.8989 5.65865 25.8046 5.43359C25.7103 5.20853 25.6856 4.96088 25.7337 4.72196C25.7818 4.48304 25.9004 4.26357 26.0747 4.09132C26.2489 3.91907 26.471 3.80176 26.7126 3.75424C26.9543 3.70671 27.2049 3.7311 27.4325 3.82433C27.6602 3.91755 27.8548 4.07542 27.9917 4.27797C28.1286 4.48051 28.2017 4.71865 28.2017 4.96225C28.2017 5.28891 28.0704 5.6022 27.8367 5.83318C27.6031 6.06417 27.2862 6.19393 26.9557 6.19393V6.19393ZM26.9557 3.82531C26.7188 3.82531 26.4871 3.89477 26.2901 4.02491C26.0931 4.15504 25.9396 4.34 25.8489 4.55641C25.7582 4.77281 25.7345 5.01094 25.7807 5.24067C25.8269 5.4704 25.941 5.68143 26.1086 5.84706C26.2761 6.01268 26.4896 6.12548 26.722 6.17118C26.9544 6.21687 27.1953 6.19342 27.4142 6.10378C27.6331 6.01414 27.8202 5.86235 27.9518 5.66759C28.0835 5.47283 28.1537 5.24386 28.1537 5.00962C28.1561 4.85261 28.1269 4.69669 28.0678 4.55095C28.0086 4.40521 27.9208 4.27254 27.8093 4.16068C27.6978 4.04882 27.5649 3.95999 27.4184 3.89937C27.2718 3.83874 27.1146 3.80753 26.9557 3.80755V3.82531Z" fill="white"/>
<path d="M26.9437 20.7905C27.612 20.7905 28.1537 20.255 28.1537 19.5944C28.1537 18.9338 27.612 18.3982 26.9437 18.3982C26.2755 18.3982 25.7337 18.9338 25.7337 19.5944C25.7337 20.255 26.2755 20.7905 26.9437 20.7905Z" fill="white"/>
<path d="M26.9557 20.8201C26.709 20.8201 26.4679 20.7477 26.2629 20.6121C26.0579 20.4765 25.8982 20.2838 25.804 20.0584C25.7099 19.833 25.6856 19.5851 25.7342 19.346C25.7827 19.1069 25.902 18.8874 26.0768 18.7154C26.2517 18.5434 26.4743 18.4266 26.7163 18.3797C26.9584 18.3329 27.2091 18.3581 27.4367 18.4522C27.6643 18.5464 27.8584 18.7052 27.9946 18.9085C28.1308 19.1118 28.2029 19.3505 28.2017 19.5944C28.2001 19.92 28.0681 20.2318 27.8346 20.4615C27.6011 20.6912 27.2851 20.8201 26.9557 20.8201V20.8201ZM26.9557 18.4515C26.7188 18.4515 26.4871 18.521 26.2901 18.6511C26.0931 18.7812 25.9396 18.9662 25.8489 19.1826C25.7582 19.399 25.7345 19.6371 25.7807 19.8669C25.8269 20.0966 25.941 20.3076 26.1086 20.4733C26.2761 20.6389 26.4896 20.7517 26.722 20.7974C26.9544 20.8431 27.1953 20.8196 27.4142 20.73C27.6331 20.6403 27.8202 20.4886 27.9518 20.2938C28.0835 20.099 28.1538 19.8701 28.1538 19.6358C28.1561 19.4788 28.1269 19.3229 28.0678 19.1772C28.0086 19.0314 27.9208 18.8987 27.8093 18.7869C27.6978 18.675 27.5649 18.5862 27.4184 18.5256C27.2718 18.4649 27.1146 18.4337 26.9557 18.4338V18.4515Z" fill="white"/>
<path d="M46.5735 21.3827C47.2418 21.3827 47.7835 20.8471 47.7835 20.1865C47.7835 19.5259 47.2418 18.9904 46.5735 18.9904C45.9052 18.9904 45.3635 19.5259 45.3635 20.1865C45.3635 20.8471 45.9052 21.3827 46.5735 21.3827Z" fill="white"/>
<path d="M46.5735 21.4182C46.3271 21.4182 46.0862 21.346 45.8813 21.2106C45.6764 21.0753 45.5167 20.8829 45.4224 20.6579C45.3281 20.4328 45.3034 20.1852 45.3515 19.9462C45.3995 19.7073 45.5182 19.4879 45.6925 19.3156C45.8667 19.1433 46.0887 19.026 46.3304 18.9785C46.5721 18.931 46.8226 18.9554 47.0503 19.0486C47.278 19.1418 47.4725 19.2997 47.6095 19.5022C47.7464 19.7048 47.8194 19.9429 47.8194 20.1865C47.8194 20.5132 47.6882 20.8265 47.4545 21.0575C47.2208 21.2884 46.9039 21.4182 46.5735 21.4182V21.4182ZM46.5735 19.0496C46.3365 19.0496 46.1049 19.1191 45.9079 19.2492C45.7109 19.3793 45.5573 19.5643 45.4666 19.7807C45.376 19.9971 45.3522 20.2352 45.3985 20.4649C45.4447 20.6947 45.5588 20.9057 45.7263 21.0713C45.8939 21.237 46.1074 21.3498 46.3398 21.3955C46.5722 21.4412 46.813 21.4177 47.0319 21.3281C47.2509 21.2384 47.438 21.0866 47.5696 20.8919C47.7013 20.6971 47.7715 20.4681 47.7715 20.2339C47.7739 20.0769 47.7447 19.921 47.6855 19.7752C47.6264 19.6295 47.5385 19.4968 47.427 19.385C47.3155 19.2731 47.1827 19.1843 47.0361 19.1236C46.8896 19.063 46.7323 19.0318 46.5735 19.0318V19.0496Z" fill="white"/>
<path d="M52.4618 37.057C53.1301 37.057 53.6718 36.5215 53.6718 35.8608C53.6718 35.2002 53.1301 34.6647 52.4618 34.6647C51.7935 34.6647 51.2518 35.2002 51.2518 35.8608C51.2518 36.5215 51.7935 37.057 52.4618 37.057Z" fill="white"/>
<path d="M52.4618 37.0925C52.2154 37.0925 51.9745 37.0203 51.7696 36.8849C51.5647 36.7496 51.405 36.5572 51.3107 36.3322C51.2164 36.1071 51.1917 35.8595 51.2398 35.6206C51.2879 35.3816 51.4065 35.1622 51.5808 34.9899C51.755 34.8177 51.977 34.7004 52.2187 34.6528C52.4604 34.6053 52.711 34.6297 52.9386 34.7229C53.1663 34.8161 53.3609 34.974 53.4978 35.1766C53.6347 35.3791 53.7078 35.6172 53.7078 35.8608C53.7078 36.1875 53.5765 36.5008 53.3428 36.7318C53.1092 36.9628 52.7923 37.0925 52.4618 37.0925V37.0925ZM52.4618 34.7239C52.2249 34.7239 51.9932 34.7934 51.7962 34.9235C51.5992 35.0536 51.4457 35.2386 51.355 35.455C51.2643 35.6714 51.2406 35.9095 51.2868 36.1393C51.333 36.369 51.4471 36.58 51.6147 36.7456C51.7822 36.9113 51.9957 37.0241 52.2281 37.0698C52.4605 37.1155 52.7014 37.092 52.9203 37.0024C53.1392 36.9127 53.3263 36.7609 53.4579 36.5662C53.5896 36.3714 53.6598 36.1424 53.6598 35.9082C53.6665 35.7501 53.6402 35.5924 53.5825 35.4447C53.5249 35.2971 53.4372 35.1628 53.3248 35.05C53.2125 34.9373 53.0779 34.8486 52.9295 34.7895C52.781 34.7303 52.6218 34.702 52.4618 34.7061V34.7239Z" fill="white"/>
<path d="M68.6951 30.9697C67.5592 30.3393 66.6299 29.4001 66.0175 28.2635C65.3727 27.0438 65.0473 25.6839 65.0711 24.3079C65.0435 22.9088 65.3863 21.5268 66.0655 20.299C66.6939 19.1662 67.6294 18.229 68.767 17.5929C69.93 16.9487 71.2438 16.6179 72.5768 16.6336C73.5723 16.6168 74.5645 16.7527 75.5179 17.0363C76.3705 17.3133 77.1853 17.6932 77.9439 18.1673C78.0711 18.2394 78.1765 18.3436 78.2495 18.4693C78.3335 18.6111 78.377 18.7728 78.3752 18.9371C78.3724 19.1581 78.2846 19.3698 78.1296 19.5292C78.044 19.615 77.9411 19.682 77.8276 19.7259C77.7141 19.7697 77.5925 19.7895 77.4707 19.7839C77.3123 19.7866 77.1558 19.7499 77.0155 19.6773C76.3805 19.2977 75.7005 18.9974 74.9908 18.7831C74.2761 18.5812 73.5357 18.4815 72.7924 18.487C71.7663 18.4699 70.7518 18.7038 69.8393 19.168C68.9673 19.6164 68.2501 20.3111 67.7786 21.1636C67.2609 22.1223 67.0049 23.1979 67.0359 24.2842C67.0195 25.3131 67.2602 26.3301 67.7367 27.245C68.195 28.1131 68.8983 28.8311 69.7614 29.3116C70.7202 29.8373 71.8042 30.0991 72.9002 30.0696C74.2177 30.0761 75.5156 29.7543 76.674 29.134V25.3087H73.1159C72.8901 25.3052 72.6748 25.2137 72.5169 25.054C72.3559 24.8976 72.2635 24.685 72.2593 24.4619C72.2585 24.3466 72.2809 24.2323 72.3252 24.1256C72.3694 24.0189 72.4347 23.922 72.5172 23.8404C72.5997 23.7589 72.6977 23.6944 72.8056 23.6506C72.9135 23.6068 73.0292 23.5847 73.1458 23.5855H77.3929C77.5292 23.5847 77.6643 23.6107 77.7904 23.6619C77.9165 23.7131 78.031 23.7885 78.1274 23.8838C78.2238 23.9791 78.3001 24.0923 78.3519 24.217C78.4037 24.3416 78.4299 24.4752 78.4292 24.6099V29.4478C78.4151 29.7172 78.3259 29.9774 78.1716 30.1999C78.0291 30.4289 77.8205 30.6104 77.5726 30.7209C76.0447 31.4948 74.3534 31.9006 72.6367 31.9053C71.2626 31.94 69.9034 31.6174 68.6951 30.9697V30.9697Z" fill="white"/>
<path d="M83.8622 31.2361C83.031 30.7759 82.3573 30.0811 81.9274 29.2406C81.479 28.3165 81.2462 27.3047 81.2462 26.2798C81.2462 25.2549 81.479 24.2431 81.9274 23.319C82.3626 22.4883 83.0355 21.8025 83.8622 21.3472C84.7569 20.8844 85.7517 20.6427 86.7615 20.6427C87.7712 20.6427 88.766 20.8844 89.6607 21.3472C90.489 21.8105 91.1632 22.5017 91.6015 23.3368C92.0576 24.2587 92.2947 25.2713 92.2947 26.2976C92.2947 27.3238 92.0576 28.3365 91.6015 29.2583C91.1653 30.0964 90.4907 30.79 89.6607 31.2539C88.766 31.7167 87.7712 31.9584 86.7615 31.9584C85.7517 31.9584 84.7569 31.7167 83.8622 31.2539V31.2361ZM88.4627 29.7676C89.023 29.4769 89.4867 29.0328 89.7985 28.4885C90.1762 27.8097 90.3604 27.0422 90.3316 26.268C90.3591 25.5014 90.1748 24.7419 89.7985 24.0711C89.4882 23.5286 89.0237 23.088 88.4627 22.8038C87.9376 22.5465 87.3595 22.4127 86.7735 22.413C86.1776 22.4107 85.5893 22.5445 85.0543 22.8038C84.4968 23.0887 84.0364 23.5294 83.7305 24.0711C83.3629 24.7446 83.185 25.5033 83.2153 26.268C83.1839 27.0403 83.3618 27.8069 83.7305 28.4885C84.0393 29.033 84.5012 29.4773 85.0603 29.7676C85.5934 30.0333 86.1824 30.1713 86.7794 30.1702C87.3627 30.1674 87.9371 30.0295 88.4567 29.7676H88.4627Z" fill="white"/>
<path d="M98.0529 31.0111C96.9126 30.3992 95.9763 29.4736 95.3573 28.3464C94.6795 27.0972 94.341 25.6955 94.3749 24.2783C94.3428 22.8651 94.6812 21.4677 95.3573 20.2221C95.9763 19.0949 96.9126 18.1692 98.0529 17.5574C99.2411 16.9254 100.573 16.6054 101.923 16.6277C102.809 16.6143 103.693 16.73 104.546 16.9711C105.346 17.2097 106.116 17.5375 106.84 17.9482C106.99 18.0236 107.115 18.1404 107.199 18.2844C107.283 18.4284 107.323 18.5934 107.314 18.7594C107.317 18.8686 107.298 18.9773 107.258 19.0791C107.218 19.1808 107.157 19.2735 107.08 19.3516C107.001 19.429 106.908 19.4903 106.805 19.532C106.702 19.5736 106.592 19.5948 106.481 19.5944C106.348 19.5967 106.216 19.5662 106.098 19.5055C105.505 19.1965 104.883 18.9465 104.241 18.7594C103.559 18.5819 102.855 18.4962 102.15 18.5048C101.046 18.4731 99.954 18.7349 98.9874 19.2628C98.1321 19.7364 97.4395 20.452 96.9986 21.3175C96.5679 22.2465 96.3449 23.2564 96.3449 24.2783C96.3449 25.3002 96.5679 26.3101 96.9986 27.2391C97.4296 28.1049 98.1115 28.8243 98.9574 29.3057C99.9241 29.8336 101.016 30.0954 102.12 30.0637C102.826 30.0735 103.53 29.9858 104.211 29.8031C104.855 29.6212 105.478 29.371 106.068 29.057C106.188 29.0012 106.319 28.9729 106.451 28.9741C106.562 28.9725 106.672 28.9926 106.775 29.0333C106.877 29.074 106.971 29.1343 107.05 29.211C107.129 29.2878 107.191 29.3802 107.231 29.4823C107.271 29.5844 107.289 29.6937 107.284 29.8031C107.293 29.9691 107.253 30.1341 107.169 30.2781C107.085 30.4221 106.96 30.5389 106.811 30.6144C106.086 31.025 105.316 31.3528 104.516 31.5914C103.663 31.8325 102.779 31.9483 101.893 31.9349C100.554 31.954 99.2328 31.6361 98.0529 31.0111Z" fill="white"/>
<path d="M110.165 31.5559C110.072 31.4684 109.999 31.3625 109.951 31.2451C109.902 31.1278 109.879 31.0016 109.883 30.8749V17.0363C109.881 16.908 109.905 16.7807 109.953 16.6617C110.002 16.5427 110.074 16.4345 110.165 16.3435C110.253 16.2509 110.36 16.1778 110.479 16.1289C110.598 16.0799 110.725 16.0562 110.854 16.0592C110.985 16.0542 111.116 16.0761 111.238 16.1234C111.36 16.1708 111.471 16.2425 111.564 16.3343C111.657 16.426 111.729 16.5357 111.777 16.6565C111.825 16.7773 111.847 16.9066 111.842 17.0363V30.8749C111.845 31.002 111.821 31.1283 111.772 31.2456C111.722 31.363 111.648 31.4687 111.555 31.5559C111.367 31.7362 111.115 31.8362 110.854 31.8342C110.726 31.8369 110.599 31.8136 110.48 31.7658C110.362 31.7179 110.254 31.6464 110.165 31.5559V31.5559Z" fill="white"/>
<path d="M116.299 31.5559C115.768 31.3149 115.321 30.9259 115.011 30.4367C114.688 29.9304 114.521 29.3418 114.532 28.7432C114.518 28.2535 114.627 27.768 114.847 27.3293C115.067 26.8905 115.393 26.5119 115.796 26.2265C116.634 25.5988 117.868 25.2909 119.492 25.2909H122.103V25.1192C122.141 24.7521 122.098 24.3815 121.978 24.0321C121.858 23.6828 121.664 23.3629 121.409 23.094C120.772 22.6362 119.988 22.4254 119.204 22.5019C118.716 22.498 118.228 22.5417 117.749 22.6321C117.269 22.7303 116.797 22.8588 116.335 23.017C116.243 23.0419 116.149 23.0558 116.053 23.0585C115.948 23.0593 115.844 23.0387 115.747 22.998C115.65 22.9572 115.563 22.8972 115.49 22.8216C115.411 22.7448 115.35 22.6523 115.309 22.5503C115.269 22.4482 115.251 22.3389 115.257 22.2295C115.249 22.0531 115.299 21.879 115.4 21.7329C115.5 21.5868 115.645 21.4765 115.814 21.4182C116.993 20.9178 118.262 20.658 119.546 20.6543C120.421 20.6212 121.289 20.826 122.055 21.2465C122.703 21.6011 123.229 22.1394 123.565 22.792C123.895 23.4274 124.064 24.1326 124.056 24.8468V30.8749C124.058 31.0024 124.033 31.1289 123.982 31.2462C123.932 31.3635 123.857 31.469 123.763 31.5559C123.575 31.7362 123.323 31.8362 123.062 31.8342C122.934 31.8358 122.807 31.8121 122.689 31.7644C122.57 31.7168 122.462 31.6462 122.372 31.5568C122.282 31.4674 122.21 31.361 122.162 31.2439C122.114 31.1268 122.09 31.0013 122.091 30.8749V30.3183C121.568 30.8539 120.936 31.275 120.238 31.5545C119.539 31.8339 118.789 31.9655 118.036 31.9408C117.435 31.9423 116.842 31.8107 116.299 31.5559V31.5559ZM120.624 29.7794C121.187 29.4965 121.691 29.1107 122.109 28.6425V26.866H119.761C117.589 26.866 116.503 27.4286 116.503 28.5537C116.494 28.7855 116.536 29.0165 116.627 29.2303C116.718 29.4441 116.856 29.6356 117.03 29.7913C117.54 30.1475 118.162 30.3133 118.785 30.2591C119.429 30.2499 120.061 30.083 120.624 29.7735V29.7794Z" fill="white"/>
<path d="M126.991 30.9815C126.875 30.9043 126.78 30.7991 126.717 30.6758C126.653 30.5526 126.621 30.4153 126.626 30.2768C126.626 30.0574 126.709 29.8459 126.86 29.6847C126.935 29.6023 127.028 29.5369 127.131 29.493C127.234 29.449 127.346 29.4276 127.459 29.4301C127.593 29.4313 127.725 29.4595 127.848 29.513C128.293 29.7093 128.754 29.8678 129.226 29.9867C129.736 30.1035 130.259 30.1591 130.783 30.1525C132.381 30.1525 133.179 29.6492 133.179 28.6425C133.176 28.478 133.123 28.3183 133.025 28.1849C132.928 28.0515 132.791 27.9508 132.634 27.8964C132.053 27.6501 131.452 27.4521 130.837 27.3042C130.123 27.1437 129.42 26.936 128.735 26.6825C128.188 26.4757 127.699 26.1427 127.309 25.7113C126.896 25.2374 126.681 24.6251 126.71 24C126.697 23.5397 126.788 23.0823 126.976 22.6612C127.165 22.2401 127.446 21.866 127.8 21.5662C128.689 20.891 129.796 20.5584 130.915 20.6306C131.981 20.6235 133.04 20.804 134.042 21.1636C134.233 21.2082 134.4 21.3224 134.509 21.4833C134.613 21.6267 134.67 21.7984 134.671 21.9748C134.671 22.0852 134.65 22.1946 134.606 22.2964C134.563 22.3981 134.499 22.4902 134.419 22.567C134.343 22.6493 134.251 22.715 134.148 22.7598C134.044 22.8047 133.933 22.8278 133.82 22.8275C133.725 22.8229 133.63 22.807 133.539 22.7802C132.744 22.5325 131.916 22.4047 131.083 22.4012C130.446 22.3656 129.813 22.5093 129.256 22.8157C129.059 22.9214 128.895 23.0771 128.781 23.2666C128.666 23.4561 128.604 23.6725 128.603 23.8934C128.596 24.0908 128.649 24.2856 128.756 24.4525C128.863 24.6194 129.018 24.7506 129.202 24.829C129.803 25.0986 130.434 25.2973 131.083 25.4212C131.783 25.5939 132.473 25.8055 133.149 26.0548C133.68 26.2621 134.151 26.5957 134.521 27.0259C134.932 27.5267 135.145 28.158 135.12 28.8024C135.128 29.2371 135.034 29.6678 134.844 30.0603C134.655 30.4529 134.376 30.7966 134.03 31.0644C133.144 31.7116 132.056 32.0283 130.957 31.9586C129.572 31.9768 128.206 31.6402 126.991 30.9815V30.9815Z" fill="white"/>
<path d="M137.354 30.9815C137.238 30.9043 137.143 30.7991 137.08 30.6758C137.016 30.5526 136.984 30.4153 136.989 30.2768C136.989 30.0574 137.072 29.8459 137.223 29.6847C137.298 29.6023 137.391 29.5369 137.494 29.493C137.597 29.449 137.709 29.4276 137.822 29.4301C137.956 29.4313 138.088 29.4595 138.211 29.513C138.656 29.7093 139.117 29.8678 139.589 29.9867C140.099 30.1035 140.622 30.1591 141.146 30.1525C142.743 30.1525 143.542 29.6492 143.542 28.6425C143.539 28.478 143.486 28.3183 143.388 28.1849C143.291 28.0515 143.154 27.9508 142.997 27.8964C142.416 27.6501 141.815 27.4521 141.2 27.3042C140.486 27.1437 139.783 26.936 139.097 26.6825C138.551 26.4757 138.062 26.1427 137.672 25.7113C137.259 25.2374 137.044 24.6251 137.073 24C137.06 23.5397 137.151 23.0823 137.339 22.6612C137.528 22.2401 137.809 21.866 138.163 21.5662C139.052 20.891 140.159 20.5584 141.278 20.6306C142.344 20.6235 143.403 20.804 144.405 21.1636C144.596 21.2082 144.763 21.3224 144.872 21.4833C144.976 21.6267 145.033 21.7984 145.034 21.9748C145.034 22.0852 145.012 22.1946 144.969 22.2964C144.926 22.3981 144.862 22.4902 144.782 22.567C144.706 22.6493 144.614 22.715 144.51 22.7598C144.407 22.8047 144.296 22.8278 144.183 22.8275C144.088 22.8229 143.993 22.807 143.902 22.7802C143.107 22.5325 142.279 22.4047 141.446 22.4012C140.809 22.3656 140.176 22.5093 139.619 22.8157C139.422 22.9231 139.258 23.081 139.144 23.2727C139.03 23.4644 138.971 23.6829 138.972 23.9053C138.959 24.1076 139.009 24.3089 139.116 24.4817C139.224 24.6545 139.382 24.7903 139.571 24.8705C140.172 25.14 140.803 25.3388 141.452 25.4626C142.145 25.6224 142.829 25.8201 143.5 26.0548C144.031 26.2621 144.502 26.5957 144.872 27.0259C145.283 27.5267 145.496 28.158 145.471 28.8024C145.474 29.2356 145.376 29.6637 145.183 30.0531C144.991 30.4424 144.71 30.7825 144.363 31.0466C143.477 31.6938 142.389 32.0105 141.29 31.9408C139.917 31.9594 138.561 31.6291 137.354 30.9815V30.9815Z" fill="white"/>
<path d="M148.879 30.4604C148.369 29.9001 147.976 29.2453 147.723 28.5338C147.47 27.8223 147.362 27.0682 147.406 26.3153C147.395 25.3557 147.585 24.4043 147.963 23.5204C148.328 22.6836 148.926 21.9669 149.688 21.4537C150.536 20.9476 151.506 20.6757 152.496 20.6663C153.487 20.657 154.461 20.9105 155.319 21.4004C156.083 21.8762 156.695 22.5556 157.086 23.3605C157.49 24.1956 157.695 25.1113 157.685 26.037C157.689 26.1626 157.667 26.2876 157.62 26.4046C157.574 26.5216 157.504 26.6282 157.415 26.718C157.322 26.8128 157.208 26.8867 157.083 26.9347C156.958 26.9827 156.824 27.0037 156.691 26.9963H149.383C149.448 27.8833 149.848 28.7137 150.503 29.3235C151.253 29.9145 152.199 30.2099 153.156 30.1525C154.168 30.1762 155.169 29.9481 156.068 29.4893C156.19 29.4334 156.323 29.4051 156.457 29.4064C156.679 29.406 156.893 29.4884 157.056 29.6373C157.138 29.7127 157.204 29.8044 157.248 29.9064C157.293 30.0084 157.315 30.1184 157.314 30.2295C157.303 30.3994 157.245 30.5631 157.145 30.7022C157.046 30.8413 156.909 30.9503 156.75 31.017C155.614 31.691 154.301 32.0185 152.977 31.9585C152.227 31.997 151.476 31.884 150.772 31.6265C150.068 31.3689 149.424 30.9721 148.879 30.4604V30.4604ZM155.744 25.3975C155.732 24.7661 155.541 24.1508 155.193 23.621C154.899 23.1721 154.484 22.8132 153.995 22.5848C153.546 22.3668 153.052 22.2534 152.551 22.2534C152.051 22.2534 151.557 22.3668 151.108 22.5848C150.618 22.8118 150.202 23.171 149.91 23.621C149.569 24.1532 149.382 24.7677 149.371 25.3975H155.744Z" fill="white"/>
<path d="M159.937 30.9815C159.821 30.9043 159.726 30.7991 159.662 30.6758C159.599 30.5526 159.567 30.4153 159.572 30.2768C159.571 30.0574 159.655 29.8459 159.805 29.6847C159.881 29.6023 159.974 29.5369 160.077 29.493C160.18 29.449 160.292 29.4276 160.404 29.4301C160.539 29.4319 160.671 29.4601 160.794 29.513C161.238 29.7101 161.699 29.8686 162.172 29.9867C162.68 30.1035 163.201 30.1592 163.723 30.1525C165.32 30.1525 166.119 29.6491 166.119 28.6425C166.115 28.4775 166.06 28.3176 165.961 28.1843C165.863 28.051 165.726 27.9505 165.568 27.8964C164.987 27.6487 164.386 27.4506 163.771 27.3042C163.057 27.1437 162.354 26.936 161.668 26.6825C161.121 26.4772 160.632 26.144 160.243 25.7113C159.829 25.2374 159.615 24.6251 159.644 24C159.631 23.5397 159.722 23.0823 159.91 22.6612C160.099 22.2401 160.38 21.866 160.734 21.5662C161.623 20.8905 162.73 20.5579 163.849 20.6306C164.915 20.6235 165.974 20.804 166.976 21.1636C167.165 21.2085 167.33 21.3228 167.437 21.4833C167.541 21.6267 167.597 21.7984 167.599 21.9748C167.599 22.0847 167.578 22.1935 167.536 22.2951C167.493 22.3967 167.431 22.4891 167.353 22.567C167.276 22.6484 167.184 22.7136 167.081 22.7584C166.978 22.8032 166.867 22.8267 166.754 22.8275C166.661 22.8228 166.568 22.8069 166.479 22.7802C165.682 22.5325 164.852 22.4047 164.017 22.4012C163.39 22.3709 162.768 22.5145 162.22 22.8157C162.023 22.9211 161.858 23.0765 161.742 23.266C161.626 23.4555 161.563 23.6721 161.561 23.8934C161.555 24.0906 161.608 24.2851 161.715 24.4519C161.822 24.6186 161.977 24.7499 162.16 24.829C162.759 25.0985 163.388 25.2972 164.035 25.4212C164.721 25.5949 165.397 25.8064 166.059 26.0548C166.589 26.2608 167.059 26.5947 167.425 27.0259C167.838 27.5253 168.052 28.1576 168.024 28.8024C168.031 29.2369 167.936 29.6671 167.746 30.0594C167.557 30.4518 167.279 30.7957 166.934 31.0644C166.048 31.7116 164.96 32.0283 163.861 31.9586C162.49 31.9705 161.139 31.634 159.937 30.9815V30.9815Z" fill="white"/>
</g>
<defs>
<clipPath id="clip0">
<rect width="168" height="48" fill="white"/>
</clipPath>
</defs>
</svg>
