<svg width="30" height="30" viewBox="0 0 30 30" fill="none" xmlns="http://www.w3.org/2000/svg">
<path d="M1.65043 29.9998L11.3599 20.2902C13.3925 21.9504 15.9132 22.8537 18.5728 22.8537C18.5727 22.8537 18.5732 22.8537 18.5728 22.8537C21.6248 22.8537 24.4949 21.6651 26.6529 19.5069C28.8112 17.3488 30 14.4791 29.9998 11.4265C29.9997 8.37431 28.8111 5.50476 26.6531 3.34661C24.4951 1.18862 21.6254 0 18.573 0C15.5208 0 12.6512 1.18862 10.4931 3.34677C8.33463 5.50507 7.14617 8.37477 7.14632 11.4271C7.14632 14.0869 8.04957 16.6076 9.70981 18.6399L0 28.3496L1.65043 29.9998ZM9.4803 11.4271C9.48015 8.9981 10.426 6.71454 12.1435 4.9972C13.8609 3.2797 16.1443 2.33398 18.573 2.33398C21.0019 2.33398 23.2853 3.2797 25.0026 4.99704C26.72 6.71438 27.6659 8.99779 27.6659 11.4267C27.6659 13.8557 26.7201 16.1391 25.0026 17.8566C23.2853 19.5741 21.0019 20.5199 18.5732 20.5199C16.1443 20.5197 13.8607 19.574 12.1434 17.8566C10.426 16.1393 9.4803 13.856 9.4803 11.4271Z" fill="white"/>
</svg>
