<svg width="90" height="90" viewBox="0 0 90 90" fill="none" xmlns="http://www.w3.org/2000/svg">
<g clip-path="url(#clip0)">
<path d="M76.875 30H31.875C24.6375 30 18.75 24.1125 18.75 16.875C18.75 9.6375 24.6375 3.75 31.875 3.75H76.875C84.1125 3.75 90 9.6375 90 16.875C90 24.1125 84.1125 30 76.875 30ZM31.875 7.5C26.7075 7.5 22.5 11.7075 22.5 16.875C22.5 22.0425 26.7075 26.25 31.875 26.25H76.875C82.0425 26.25 86.25 22.0425 86.25 16.875C86.25 11.7075 82.0425 7.5 76.875 7.5H31.875Z" fill="white"/>
<path d="M35.625 22.5C32.5237 22.5 30 19.9762 30 16.875C30 13.7737 32.5237 11.25 35.625 11.25C38.7262 11.25 41.25 13.7737 41.25 16.875C41.25 19.9762 38.7262 22.5 35.625 22.5ZM35.625 15C34.59 15 33.75 15.84 33.75 16.875C33.75 17.91 34.59 18.75 35.625 18.75C36.66 18.75 37.5 17.91 37.5 16.875C37.5 15.84 36.66 15 35.625 15Z" fill="white"/>
<path d="M54.375 22.5C51.2737 22.5 48.75 19.9762 48.75 16.875C48.75 13.7737 51.2737 11.25 54.375 11.25C57.4762 11.25 60 13.7737 60 16.875C60 19.9762 57.4762 22.5 54.375 22.5ZM54.375 15C53.34 15 52.5 15.84 52.5 16.875C52.5 17.91 53.34 18.75 54.375 18.75C55.41 18.75 56.25 17.91 56.25 16.875C56.25 15.84 55.41 15 54.375 15Z" fill="white"/>
<path d="M76.875 60H31.875C24.6375 60 18.75 54.1125 18.75 46.875C18.75 39.6375 24.6375 33.75 31.875 33.75H76.875C84.1125 33.75 90 39.6375 90 46.875C90 54.1125 84.1125 60 76.875 60ZM31.875 37.5C26.7075 37.5 22.5 41.7075 22.5 46.875C22.5 52.0425 26.7075 56.25 31.875 56.25H76.875C82.0425 56.25 86.25 52.0425 86.25 46.875C86.25 41.7075 82.0425 37.5 76.875 37.5H31.875Z" fill="white"/>
<path d="M35.625 52.5C32.5237 52.5 30 49.9762 30 46.875C30 43.7737 32.5237 41.25 35.625 41.25C38.7262 41.25 41.25 43.7737 41.25 46.875C41.25 49.9762 38.7262 52.5 35.625 52.5ZM35.625 45C34.59 45 33.75 45.84 33.75 46.875C33.75 47.91 34.59 48.75 35.625 48.75C36.66 48.75 37.5 47.91 37.5 46.875C37.5 45.84 36.66 45 35.625 45Z" fill="white"/>
<path d="M54.375 52.5C51.2737 52.5 48.75 49.9762 48.75 46.875C48.75 43.7737 51.2737 41.25 54.375 41.25C57.4762 41.25 60 43.7737 60 46.875C60 49.9762 57.4762 52.5 54.375 52.5ZM54.375 45C53.34 45 52.5 45.84 52.5 46.875C52.5 47.91 53.34 48.75 54.375 48.75C55.41 48.75 56.25 47.91 56.25 46.875C56.25 45.84 55.41 45 54.375 45Z" fill="white"/>
<path d="M76.875 90H31.875C24.6375 90 18.75 84.1125 18.75 76.875C18.75 69.6375 24.6375 63.75 31.875 63.75H76.875C84.1125 63.75 90 69.6375 90 76.875C90 84.1125 84.1125 90 76.875 90ZM31.875 67.5C26.7075 67.5 22.5 71.7075 22.5 76.875C22.5 82.0425 26.7075 86.25 31.875 86.25H76.875C82.0425 86.25 86.25 82.0425 86.25 76.875C86.25 71.7075 82.0425 67.5 76.875 67.5H31.875Z" fill="white"/>
<path d="M35.625 82.5C32.5237 82.5 30 79.9762 30 76.875C30 73.7737 32.5237 71.25 35.625 71.25C38.7262 71.25 41.25 73.7737 41.25 76.875C41.25 79.9762 38.7262 82.5 35.625 82.5ZM35.625 75C34.59 75 33.75 75.84 33.75 76.875C33.75 77.91 34.59 78.75 35.625 78.75C36.66 78.75 37.5 77.91 37.5 76.875C37.5 75.84 36.66 75 35.625 75Z" fill="white"/>
<path d="M54.375 82.5C51.2737 82.5 48.75 79.9762 48.75 76.875C48.75 73.7737 51.2737 71.25 54.375 71.25C57.4762 71.25 60 73.7737 60 76.875C60 79.9762 57.4762 82.5 54.375 82.5ZM54.375 75C53.34 75 52.5 75.84 52.5 76.875C52.5 77.91 53.34 78.75 54.375 78.75C55.41 78.75 56.25 77.91 56.25 76.875C56.25 75.84 55.41 75 54.375 75Z" fill="white"/>
<path d="M20.625 78.75H9.375C4.2075 78.75 0 74.5425 0 69.375V24.375C0 19.2075 4.2075 15 9.375 15H20.625V18.75H9.375C6.27375 18.75 3.75 21.2737 3.75 24.375V69.375C3.75 72.4762 6.27375 75 9.375 75H20.625V78.75Z" fill="white"/>
<path d="M1.875 45H20.625V48.75H1.875V45Z" fill="white"/>
</g>
<defs>
<clipPath id="clip0">
<rect width="90" height="90" fill="white"/>
</clipPath>
</defs>
</svg>
