<svg width="90" height="90" viewBox="0 0 90 90" fill="none" xmlns="http://www.w3.org/2000/svg">
<path d="M73.6913 23.2258V4.35484H27.0334C26.3842 1.85634 24.1302 0 21.4333 0C18.2309 0 15.6268 2.60411 15.6268 5.80645C15.6268 8.50484 17.4846 10.7581 19.9816 11.4066V18.1565L0.181442 33.3871L19.9816 48.6177V55.1613H9.82035V69.6774H19.9816V78.5934C17.4846 79.2419 15.6268 81.4952 15.6268 84.1936C15.6268 87.3959 18.2309 90 21.4333 90C24.6356 90 27.2397 87.3959 27.2397 84.1936C27.2397 81.4952 25.3812 79.2419 22.8849 78.5934V69.6774H33.0462V55.1613H22.8849V48.6177L40.7975 34.8387H54.8203V43.5484H89.6591V23.2258H73.6913ZM24.3365 84.1936C24.3365 85.7947 23.0344 87.0968 21.4333 87.0968C19.8321 87.0968 18.53 85.7947 18.53 84.1936C18.53 82.5924 19.8321 81.2903 21.4333 81.2903C23.0344 81.2903 24.3365 82.5924 24.3365 84.1936ZM30.1429 66.7742H12.7236V58.0645H30.1429V66.7742ZM18.53 5.80645C18.53 4.20528 19.8321 2.90323 21.4333 2.90323C23.0344 2.90323 24.3365 4.20528 24.3365 5.80645C24.3365 7.40762 23.0344 8.70968 21.4333 8.70968C19.8321 8.70968 18.53 7.40762 18.53 5.80645ZM21.4333 46.071L4.94242 33.3871L21.4333 20.7032L37.9234 33.3871L21.4333 46.071ZM40.7975 31.9355L22.8849 18.1565V11.4066C24.9156 10.8786 26.5047 9.28876 27.0334 7.25806H70.7881V23.2258H54.8203V31.9355H40.7975ZM86.7558 40.6452H57.7236V26.129H86.7558V40.6452Z" fill="white"/>
<path d="M60.6268 29.0323H83.8526V31.9355H60.6268V29.0323Z" fill="white"/>
<path d="M60.6268 34.8387H80.9494V37.7419H60.6268V34.8387Z" fill="white"/>
<path d="M38.8526 79.8387H85.3042V53.7097H38.8526V79.8387ZM41.7559 56.6129H82.401V76.9355H41.7559V56.6129Z" fill="white"/>
<path d="M44.6591 59.5161H47.5623V62.4193H44.6591V59.5161Z" fill="white"/>
<path d="M50.4655 59.5161H79.4978V62.4193H50.4655V59.5161Z" fill="white"/>
<path d="M50.4655 65.3225H79.4978V68.2257H50.4655V65.3225Z" fill="white"/>
<path d="M44.6591 65.3225H47.5623V68.2257H44.6591V65.3225Z" fill="white"/>
<path d="M44.6591 71.129H47.5623V74.0322H44.6591V71.129Z" fill="white"/>
<path d="M50.4655 71.129H79.4978V74.0322H50.4655V71.129Z" fill="white"/>
</svg>
